#Comment line ignore any data following # character 
#Hierarchical Translation and Rotation (.htr) file 
[Header]	
#Header keywords are followed by a single value 
FileType HTR		#Single word string
DataType HTRS		#Translation followed by rotation and scale data
FileVersion 1		#integer
NumSegments 84		#integer
NumFrames 2		#integer
DataFrameRate 30		#integer, data frame rate in this file
EulerRotationOrder ZYX
CalibrationUnits mm
RotationUnits Degrees
GlobalAxisofGravity Y
BoneLengthAxis Y
ScaleFactor 1.00
[SegmentNames&Hierarchy]
#CHILD	PARENT
MASTER GLOBAL
root MASTER
chest root
L_mid_tent01 root
R_mid_tent01 root
spine01 root
Bip01_Neck chest
L_humerus chest
R_humerus chest
weapon_bone chest
Bip01_Head Bip01_Neck
eye_left_bone Bip01_Head
eye_right_bone Bip01_Head
L_forearm L_humerus
L_front_hand L_forearm
L_weapon_bone L_forearm
L_front_hand01_01 L_front_hand
L_front_hand02_01 L_front_hand
L_front_hand03_01 L_front_hand
L_front_hand01_02 L_front_hand01_01
L_front_hand02_02 L_front_hand02_01
L_front_hand03_02 L_front_hand03_01
R_forearm R_humerus
R_front_hand R_forearm
R_weapon_bone R_forearm
R_front_hand01_01 R_front_hand
R_front_hand02_01 R_front_hand
R_front_hand03_01 R_front_hand
R_front_hand01_02 R_front_hand01_01
R_front_hand02_02 R_front_hand02_01
R_front_hand03_02 R_front_hand03_01
null_rope01_connect L_mid_tent01
Rope1_Seg01 null_rope01_connect
Rope1_Seg02 Rope1_Seg01
Rope1_Seg03 Rope1_Seg02
Rope1_Seg04 Rope1_Seg03
Rope1_Seg05 Rope1_Seg04
Rope1_Seg06 Rope1_Seg05
Rope1_Seg07 Rope1_Seg06
Rope1_Seg09 Rope1_Seg07
L_mid_hand01 Rope1_Seg09
L_mid_hand02 Rope1_Seg09
L_mid_hand03 Rope1_Seg09
null_rope02_connect R_mid_tent01
Rope2_Seg01 null_rope02_connect
Rope2_Seg02 Rope2_Seg01
Rope2_Seg03 Rope2_Seg02
Rope2_Seg04 Rope2_Seg03
Rope2_Seg05 Rope2_Seg04
Rope2_Seg06 Rope2_Seg05
Rope2_Seg07 Rope2_Seg06
Rope2_Seg09 Rope2_Seg07
R_mid_hand01 Rope2_Seg09
R_mid_hand02 Rope2_Seg09
R_mid_hand03 Rope2_Seg09
spine02 spine01
spine03 spine02
pelvis spine03
null_rope03_connect pelvis
null_rope04_connect pelvis
Rope3_Seg01 null_rope03_connect
Rope3_Seg02 Rope3_Seg01
Rope3_Seg03 Rope3_Seg02
Rope3_Seg04 Rope3_Seg03
Rope3_Seg05 Rope3_Seg04
Rope3_Seg06 Rope3_Seg05
Rope3_Seg07 Rope3_Seg06
Rope3_Seg08 Rope3_Seg07
Rope3_Seg09 Rope3_Seg08
R_rear_hand01 Rope3_Seg09
R_rear_hand02 Rope3_Seg09
R_rear_hand03 Rope3_Seg09
Rope4_Seg01 null_rope04_connect
Rope4_Seg02 Rope4_Seg01
Rope4_Seg03 Rope4_Seg02
Rope4_Seg04 Rope4_Seg03
Rope4_Seg05 Rope4_Seg04
Rope4_Seg06 Rope4_Seg05
Rope4_Seg07 Rope4_Seg06
Rope4_Seg08 Rope4_Seg07
Rope4_Seg09 Rope4_Seg08
L_rear_hand01 Rope4_Seg09
L_rear_hand02 Rope4_Seg09
L_rear_hand03 Rope4_Seg09
[BasePosition]
#SegmentName Tx, Ty, Tz, Rx, Ry, Rz, BoneLength
MASTER 0.000000 0.000000 0.000000 -90.000000 0.000000 0.000000 10.000000 
root 0.000000 0.000000 0.000000 0.000000 0.000000 0.000000 10.000000 
chest 0.000000 0.000000 0.000000 0.000000 0.000000 0.000000 10.000000 
L_mid_tent01 0.000000 0.000000 0.000000 0.000000 0.000000 0.000000 10.000000 
R_mid_tent01 0.000000 0.000000 0.000000 0.000000 0.000000 0.000000 10.000000 
spine01 0.000000 0.000000 0.000000 0.000000 0.000000 0.000000 10.000000 
Bip01_Neck 0.000000 0.000000 0.000000 0.000000 0.000000 0.000000 10.000000 
L_humerus 0.000000 0.000000 0.000000 0.000000 0.000000 0.000000 10.000000 
R_humerus 0.000000 0.000000 0.000000 0.000000 0.000000 0.000000 10.000000 
weapon_bone 0.000000 0.000000 0.000000 0.000000 0.000000 0.000000 10.000000 
Bip01_Head 0.000000 0.000000 0.000000 0.000000 0.000000 0.000000 10.000000 
eye_left_bone 0.000000 0.000000 0.000000 0.000000 0.000000 0.000000 10.000000 
eye_right_bone 0.000000 0.000000 0.000000 0.000000 0.000000 0.000000 10.000000 
L_forearm 0.000000 0.000000 0.000000 0.000000 0.000000 0.000000 10.000000 
L_front_hand 0.000000 0.000000 0.000000 0.000000 0.000000 0.000000 10.000000 
L_weapon_bone 0.000000 0.000000 0.000000 0.000000 0.000000 0.000000 10.000000 
L_front_hand01_01 0.000000 0.000000 0.000000 0.000000 0.000000 0.000000 10.000000 
L_front_hand02_01 0.000000 0.000000 0.000000 0.000000 0.000000 0.000000 10.000000 
L_front_hand03_01 0.000000 0.000000 0.000000 0.000000 0.000000 0.000000 10.000000 
L_front_hand01_02 0.000000 0.000000 0.000000 0.000000 0.000000 0.000000 10.000000 
L_front_hand02_02 0.000000 0.000000 0.000000 0.000000 0.000000 0.000000 10.000000 
L_front_hand03_02 0.000000 0.000000 0.000000 0.000000 0.000000 0.000000 10.000000 
R_forearm 0.000000 0.000000 0.000000 0.000000 0.000000 0.000000 10.000000 
R_front_hand 0.000000 0.000000 0.000000 0.000000 0.000000 0.000000 10.000000 
R_weapon_bone 0.000000 0.000000 0.000000 0.000000 0.000000 0.000000 10.000000 
R_front_hand01_01 0.000000 0.000000 0.000000 0.000000 0.000000 0.000000 10.000000 
R_front_hand02_01 0.000000 0.000000 0.000000 0.000000 0.000000 0.000000 10.000000 
R_front_hand03_01 0.000000 0.000000 0.000000 0.000000 0.000000 0.000000 10.000000 
R_front_hand01_02 0.000000 0.000000 0.000000 0.000000 0.000000 0.000000 10.000000 
R_front_hand02_02 0.000000 0.000000 0.000000 0.000000 0.000000 0.000000 10.000000 
R_front_hand03_02 0.000000 0.000000 0.000000 0.000000 0.000000 0.000000 10.000000 
null_rope01_connect 0.000000 0.000000 0.000000 0.000000 0.000000 0.000000 10.000000 
Rope1_Seg01 0.000000 0.000000 0.000000 0.000000 0.000000 0.000000 10.000000 
Rope1_Seg02 0.000000 0.000000 0.000000 0.000000 0.000000 0.000000 10.000000 
Rope1_Seg03 0.000000 0.000000 0.000000 0.000000 0.000000 0.000000 10.000000 
Rope1_Seg04 0.000000 0.000000 0.000000 0.000000 0.000000 0.000000 10.000000 
Rope1_Seg05 0.000000 0.000000 0.000000 0.000000 0.000000 0.000000 10.000000 
Rope1_Seg06 0.000000 0.000000 0.000000 0.000000 0.000000 0.000000 10.000000 
Rope1_Seg07 0.000000 0.000000 0.000000 0.000000 0.000000 0.000000 10.000000 
Rope1_Seg09 0.000000 0.000000 0.000000 0.000000 0.000000 0.000000 10.000000 
L_mid_hand01 0.000000 0.000000 0.000000 0.000000 0.000000 0.000000 10.000000 
L_mid_hand02 0.000000 0.000000 0.000000 0.000000 0.000000 0.000000 10.000000 
L_mid_hand03 0.000000 0.000000 0.000000 0.000000 0.000000 0.000000 10.000000 
null_rope02_connect 0.000000 0.000000 0.000000 0.000000 0.000000 0.000000 10.000000 
Rope2_Seg01 0.000000 0.000000 0.000000 0.000000 0.000000 0.000000 10.000000 
Rope2_Seg02 0.000000 0.000000 0.000000 0.000000 0.000000 0.000000 10.000000 
Rope2_Seg03 0.000000 0.000000 0.000000 0.000000 0.000000 0.000000 10.000000 
Rope2_Seg04 0.000000 0.000000 0.000000 0.000000 0.000000 0.000000 10.000000 
Rope2_Seg05 0.000000 0.000000 0.000000 0.000000 0.000000 0.000000 10.000000 
Rope2_Seg06 0.000000 0.000000 0.000000 0.000000 0.000000 0.000000 10.000000 
Rope2_Seg07 0.000000 0.000000 0.000000 0.000000 0.000000 0.000000 10.000000 
Rope2_Seg09 0.000000 0.000000 0.000000 0.000000 0.000000 0.000000 10.000000 
R_mid_hand01 0.000000 0.000000 0.000000 0.000000 0.000000 0.000000 10.000000 
R_mid_hand02 0.000000 0.000000 0.000000 0.000000 0.000000 0.000000 10.000000 
R_mid_hand03 0.000000 0.000000 0.000000 0.000000 0.000000 0.000000 10.000000 
spine02 0.000000 0.000000 0.000000 0.000000 0.000000 0.000000 10.000000 
spine03 0.000000 0.000000 0.000000 0.000000 0.000000 0.000000 10.000000 
pelvis 0.000000 0.000000 0.000000 0.000000 0.000000 0.000000 10.000000 
null_rope03_connect 0.000000 0.000000 0.000000 0.000000 0.000000 0.000000 10.000000 
null_rope04_connect 0.000000 0.000000 0.000000 0.000000 0.000000 0.000000 10.000000 
Rope3_Seg01 0.000000 0.000000 0.000000 0.000000 0.000000 0.000000 10.000000 
Rope3_Seg02 0.000000 0.000000 0.000000 0.000000 0.000000 0.000000 10.000000 
Rope3_Seg03 0.000000 0.000000 0.000000 0.000000 0.000000 0.000000 10.000000 
Rope3_Seg04 0.000000 0.000000 0.000000 0.000000 0.000000 0.000000 10.000000 
Rope3_Seg05 0.000000 0.000000 0.000000 0.000000 0.000000 0.000000 10.000000 
Rope3_Seg06 0.000000 0.000000 0.000000 0.000000 0.000000 0.000000 10.000000 
Rope3_Seg07 0.000000 0.000000 0.000000 0.000000 0.000000 0.000000 10.000000 
Rope3_Seg08 0.000000 0.000000 0.000000 0.000000 0.000000 0.000000 10.000000 
Rope3_Seg09 0.000000 0.000000 0.000000 0.000000 0.000000 0.000000 10.000000 
R_rear_hand01 0.000000 0.000000 0.000000 0.000000 0.000000 0.000000 10.000000 
R_rear_hand02 0.000000 0.000000 0.000000 0.000000 0.000000 0.000000 10.000000 
R_rear_hand03 0.000000 0.000000 0.000000 0.000000 0.000000 0.000000 10.000000 
Rope4_Seg01 0.000000 0.000000 0.000000 0.000000 0.000000 0.000000 10.000000 
Rope4_Seg02 0.000000 0.000000 0.000000 0.000000 0.000000 0.000000 10.000000 
Rope4_Seg03 0.000000 0.000000 0.000000 0.000000 0.000000 0.000000 10.000000 
Rope4_Seg04 0.000000 0.000000 0.000000 0.000000 0.000000 0.000000 10.000000 
Rope4_Seg05 0.000000 0.000000 0.000000 0.000000 0.000000 0.000000 10.000000 
Rope4_Seg06 0.000000 0.000000 0.000000 0.000000 0.000000 0.000000 10.000000 
Rope4_Seg07 0.000000 0.000000 0.000000 0.000000 0.000000 0.000000 10.000000 
Rope4_Seg08 0.000000 0.000000 0.000000 0.000000 0.000000 0.000000 10.000000 
Rope4_Seg09 0.000000 0.000000 0.000000 0.000000 0.000000 0.000000 10.000000 
L_rear_hand01 0.000000 0.000000 0.000000 0.000000 0.000000 0.000000 10.000000 
L_rear_hand02 0.000000 0.000000 0.000000 0.000000 0.000000 0.000000 10.000000 
L_rear_hand03 0.000000 0.000000 0.000000 0.000000 0.000000 0.000000 10.000000 
#Beginning of Data. Separated by tabs
#Fr	Tx	Ty	Tz	Rx	Ry	Rz	SF
[MASTER]
31 0.000003 -0.000026 4798.321289 0.001660 0.001660 0.001660 4798.321289
32 0.000003 -0.000031 4798.157715 0.001660 0.001660 0.001660 4798.157715
[root]
31 -16.502298 -25.953020 1471.403564 -70.401619 -11.931451 -90.031639 1471.724976
32 -16.502298 -26.893522 1472.317505 -69.732895 -11.946898 -89.705940 1472.655518
[chest]
31 -84.512650 -34.090519 0.000000 -80.675316 5.113029 154.058060 91.129311
32 -84.512650 -34.090519 0.000000 -95.508202 6.111320 150.691910 91.129311
[L_mid_tent01]
31 27.299059 22.179005 -249.918686 -63.477264 80.984436 23.041586 252.381653
32 27.299057 22.179001 -249.918686 -123.132141 78.855721 -34.944469 252.381653
[R_mid_tent01]
31 23.228794 24.509907 226.238495 -178.775772 -83.666618 66.757629 228.744751
32 23.228794 24.509907 226.238495 -110.978691 -86.693642 -1.293818 228.744751
[spine01]
31 -0.361383 -0.195265 0.000000 0.002062 0.001122 32.879829 0.410763
32 -0.361383 -0.195265 0.000000 0.002062 0.001122 32.879829 0.410763
[Bip01_Neck]
31 165.484543 71.581718 0.000119 176.643677 -1.657967 43.431911 180.302734
32 165.484543 71.581718 0.000119 176.643677 -1.657967 43.431911 180.302734
[L_humerus]
31 -13.983130 -135.272980 -120.471481 156.317398 70.210068 -112.010254 181.680161
32 -13.983130 -135.272980 -120.471481 156.317383 70.210045 -112.010239 181.680161
[R_humerus]
31 -13.983309 -135.273102 125.287651 -172.382263 -66.903847 -92.553993 184.909012
32 -13.983309 -135.273102 125.287651 -172.382248 -66.903847 -92.554039 184.909012
[weapon_bone]
31 235.964890 -300.705902 0.000000 0.000000 -89.951546 -128.212341 382.234833
32 235.964890 -300.705902 0.000000 0.000000 -89.951546 -128.212341 382.234833
[Bip01_Head]
31 213.326904 186.042404 7.559238 31.851933 6.013485 -43.834995 283.155914
32 213.326920 186.042389 7.559247 31.181002 5.946090 -43.839222 283.155945
[eye_left_bone]
31 -24.626970 125.451866 -64.772606 0.000000 -90.000000 -99.840431 143.318359
32 -24.626970 125.451866 -64.772606 0.000000 -90.000000 -99.840431 143.318359
[eye_right_bone]
31 -24.626970 125.451866 64.327362 0.000000 -89.965736 80.156380 143.117676
32 -24.626970 125.451866 64.327362 0.000000 -89.965736 80.156380 143.117676
[L_forearm]
31 322.776093 0.000000 -0.000119 0.000119 -0.002344 -95.807457 322.776093
32 322.776093 0.000000 -0.000119 0.000119 -0.002344 -95.807457 322.776093
[L_front_hand]
31 241.149185 -0.042021 -3.300071 -178.667953 -1.835447 -27.422350 241.171753
32 241.149185 -0.042021 -3.300071 -178.667953 -1.835447 -27.422342 241.171753
[L_weapon_bone]
31 156.183838 0.000000 0.000000 0.000014 0.000007 0.000001 156.183838
32 156.183838 0.000000 0.000000 0.000014 0.000007 0.000001 156.183838
[L_front_hand01_01]
31 86.095154 20.947098 -0.655860 -0.366594 -0.477154 75.385574 88.609184
32 86.095154 20.947098 -0.655860 -0.366594 -0.477154 75.385574 88.609184
[L_front_hand02_01]
31 86.935165 -11.437475 24.513514 154.399796 -59.883835 -61.369587 91.046425
32 86.935165 -11.437475 24.513514 154.399796 -59.883835 -61.369587 91.046425
[L_front_hand03_01]
31 86.637497 -14.123976 -20.424902 -153.913849 58.118122 -62.702866 90.126129
32 86.637497 -14.123976 -20.424902 -153.913849 58.118122 -62.702866 90.126129
[L_front_hand01_02]
31 71.020905 -0.000179 0.000030 0.000334 -0.002323 -106.379684 71.020905
32 71.020905 -0.000179 0.000030 0.000334 -0.002323 -106.379684 71.020905
[L_front_hand02_02]
31 71.020927 -0.000119 0.000060 0.000334 -0.002323 -106.379684 71.020927
32 71.020927 -0.000119 0.000060 0.000334 -0.002323 -106.379684 71.020927
[L_front_hand03_02]
31 71.020905 -0.000060 0.000060 0.000334 -0.002323 -106.379684 71.020905
32 71.020905 -0.000060 0.000060 0.000334 -0.002323 -106.379684 71.020905
[R_forearm]
31 322.776428 -0.000060 0.000030 0.209504 0.012586 -94.339050 322.776428
32 322.776428 -0.000060 0.000030 0.209504 0.012586 -94.339050 322.776428
[R_front_hand]
31 238.847015 -0.006795 2.210259 -2.635298 -10.645461 -26.312506 238.857239
32 238.847015 -0.006795 2.210259 -2.635298 -10.645461 -26.312506 238.857239
[R_weapon_bone]
31 155.664093 0.002503 -0.000030 0.003487 0.001180 -90.988930 155.664078
32 155.664093 0.002503 -0.000030 0.003487 0.001180 -90.988930 155.664078
[R_front_hand01_01]
31 87.624611 14.231146 22.918642 -154.633499 -59.950619 61.746044 91.683487
32 87.624611 14.231146 22.918642 -154.633499 -59.950619 61.746044 91.683487
[R_front_hand02_01]
31 89.356956 14.367283 -19.491137 154.602661 58.302849 63.744389 92.579636
32 89.356956 14.367283 -19.491137 154.602661 58.302849 63.744389 92.579636
[R_front_hand03_01]
31 87.286232 -22.307278 -0.143439 0.162155 -0.423168 -75.767921 90.091743
32 87.286232 -22.307278 -0.143439 0.162155 -0.423168 -75.767906 90.091743
[R_front_hand01_02]
31 71.020905 0.000060 0.000119 0.002323 -0.000334 106.381714 71.020905
32 71.020905 0.000060 0.000119 0.002323 -0.000334 106.381714 71.020905
[R_front_hand02_02]
31 71.020844 -0.000030 -0.000119 0.002323 -0.000334 106.381714 71.020836
32 71.020844 -0.000030 -0.000119 0.002323 -0.000334 106.381714 71.020836
[R_front_hand03_02]
31 71.020905 0.000000 0.000030 0.002323 -0.000334 106.381714 71.020905
32 71.020905 0.000000 0.000030 0.002323 -0.000334 106.381714 71.020905
[null_rope01_connect]
31 328.732483 0.000000 -0.000238 -164.575943 -23.571589 -173.119629 328.732483
32 328.732483 0.000000 -0.000238 -165.756897 -14.264874 -171.165497 328.732483
[Rope1_Seg01]
31 0.000012 -0.000064 0.000416 11.856368 34.154762 -157.420547 0.000421
32 0.000011 -0.000065 0.000430 8.324733 29.646177 -160.373093 0.000435
[Rope1_Seg02]
31 139.999863 -0.000179 0.000000 -7.092822 -17.481487 -7.039597 139.999863
32 139.999863 -0.000179 0.000000 -6.590460 -14.687303 -5.754706 139.999863
[Rope1_Seg03]
31 139.999924 0.000060 -0.000060 -13.467652 -36.175598 -28.227066 139.999924
32 139.999924 0.000060 -0.000060 -15.446072 -37.015347 -27.021496 139.999924
[Rope1_Seg04]
31 139.999924 -0.000060 -0.000119 -6.663539 -18.248861 -27.831217 139.999924
32 139.999924 -0.000060 -0.000119 -6.885863 -21.063477 -35.119263 139.999924
[Rope1_Seg05]
31 139.999832 0.000119 -0.000060 -3.508369 -15.736416 -11.201851 139.999832
32 139.999832 0.000119 -0.000060 -2.367629 -12.825100 -9.380743 139.999832
[Rope1_Seg06]
31 139.999954 0.000119 -0.000060 -3.427941 -12.410927 -8.738068 139.999954
32 139.999954 0.000119 -0.000060 -2.356106 -10.273521 -5.346385 139.999954
[Rope1_Seg07]
31 139.999985 0.000060 0.000000 -2.003510 -5.329730 -5.696177 139.999985
32 139.999985 0.000060 0.000000 -1.519664 -4.510509 -4.255866 139.999985
[Rope1_Seg09]
31 121.602913 0.000119 -0.000089 -89.793175 -1.359789 0.847147 121.602913
32 121.602913 0.000119 -0.000089 -89.793175 -1.359789 0.847147 121.602913
[L_mid_hand01]
31 103.859421 1.038730 8.195221 130.544373 -67.584534 -38.866943 104.187431
32 103.859421 1.038730 8.195221 130.544373 -67.584534 -38.866943 104.187431
[L_mid_hand02]
31 105.572853 -4.139662 -10.864139 -168.923172 43.409309 -73.498886 106.211075
32 105.572853 -4.139662 -10.864139 -168.923172 43.409309 -73.498886 106.211075
[L_mid_hand03]
31 104.641464 17.579376 -3.913581 -6.012627 17.808174 74.893669 106.179977
32 104.641464 17.579376 -3.913581 -6.012627 17.808174 74.893669 106.179977
[null_rope02_connect]
31 328.732849 0.000179 -0.000119 -145.697861 -11.824137 -7.539737 328.732849
32 328.732849 0.000179 -0.000119 -144.744278 -17.699934 -10.742279 328.732849
[Rope2_Seg01]
31 -0.000080 0.000097 0.000000 77.031540 30.383844 9.923756 0.000125
32 -0.000085 0.000096 0.000000 75.972572 33.305012 9.532840 0.000128
[Rope2_Seg02]
31 139.999741 -0.000060 -0.000119 4.267087 1.725966 10.936902 139.999756
32 139.999741 -0.000060 -0.000119 3.307199 1.393820 9.364529 139.999756
[Rope2_Seg03]
31 140.000107 0.000030 0.000000 10.845902 5.052746 22.167572 140.000107
32 140.000107 0.000030 0.000000 8.648309 3.957380 19.532501 140.000107
[Rope2_Seg04]
31 139.999802 0.000000 -0.000060 19.828125 15.698860 34.483093 139.999802
32 139.999802 0.000000 -0.000060 20.585163 14.028321 37.287663 139.999802
[Rope2_Seg05]
31 139.999985 -0.000060 0.000119 7.701298 11.925267 17.935232 139.999985
32 139.999985 -0.000060 0.000119 9.847678 14.214430 21.598303 139.999985
[Rope2_Seg06]
31 139.999893 -0.000030 -0.000119 4.184072 5.213023 14.197643 139.999893
32 139.999893 -0.000030 -0.000119 3.949779 5.410336 13.719827 139.999893
[Rope2_Seg07]
31 139.999893 0.000060 -0.000060 3.455570 5.668028 11.326959 139.999893
32 139.999893 0.000060 -0.000060 3.411106 5.331540 11.815767 139.999893
[Rope2_Seg09]
31 121.338966 0.000089 -0.000060 33.793236 -1.359788 -0.847141 121.338966
32 121.338966 0.000089 -0.000060 33.793236 -1.359788 -0.847141 121.338966
[R_mid_hand01]
31 104.680779 11.144459 -10.335981 -16.212063 45.237247 70.462852 105.778534
32 104.680779 11.144459 -10.335981 -16.212063 45.237247 70.462852 105.778534
[R_mid_hand02]
31 104.070427 2.443552 8.231699 49.067368 -67.749771 39.286453 104.424065
32 104.070427 2.443552 8.231699 49.067371 -67.749794 39.286461 104.424065
[R_mid_hand03]
31 106.028137 -11.221827 -5.996406 -177.101105 15.551026 -76.585571 106.788818
32 106.028137 -11.221827 -5.996406 -177.101105 15.551026 -76.585571 106.788818
[spine02]
31 129.756927 0.001550 0.000119 -1.023899 -3.926965 6.770993 129.756927
32 129.756927 0.001550 0.000119 -1.023899 -3.926965 6.770993 129.756927
[spine03]
31 78.614006 0.081738 -4.898995 1.040681 4.146420 4.212376 78.766541
32 78.614006 0.081738 -4.898995 1.040681 4.146420 4.212376 78.766541
[pelvis]
31 169.435242 0.051022 0.000000 0.019518 -0.190233 -10.721436 169.435257
32 169.435242 0.051022 0.000000 0.019518 -0.190233 -10.721436 169.435257
[null_rope03_connect]
31 -1.257226 -2.466202 137.391083 12.199913 -70.685966 56.692688 137.418976
32 -1.257226 -2.466202 137.391083 13.068648 -69.945183 55.787266 137.418976
[null_rope04_connect]
31 -1.259640 -2.480268 -137.844437 12.199913 -70.685966 56.692688 137.872513
32 -1.259640 -2.480268 -137.844437 13.068648 -69.945183 55.787266 137.872513
[Rope3_Seg01]
31 0.000000 0.000000 0.000000 14.911768 -1.336921 -52.970821 0.000000
32 0.000000 0.000000 0.000000 15.826274 0.833274 -53.068199 0.000000
[Rope3_Seg02]
31 139.999924 -0.000119 0.000060 -3.182882 -8.227118 1.867611 139.999924
32 139.999924 -0.000119 0.000060 -3.387519 -7.732212 2.601286 139.999924
[Rope3_Seg03]
31 139.999924 -0.000119 0.000119 -3.396154 -11.128088 1.918496 139.999924
32 139.999924 -0.000119 0.000119 -3.952119 -10.689169 2.951301 139.999924
[Rope3_Seg04]
31 139.999924 0.000119 0.000000 -2.928114 -14.129578 1.800406 139.999924
32 139.999924 0.000119 0.000000 -4.048109 -14.207521 3.284401 139.999924
[Rope3_Seg05]
31 139.999924 -0.000238 0.000060 -1.139288 -13.974542 1.177781 139.999924
32 139.999924 -0.000238 0.000060 -2.428962 -14.791828 2.736509 139.999924
[Rope3_Seg06]
31 139.999893 -0.000119 -0.000060 0.754165 -13.358291 0.122499 139.999893
32 139.999893 -0.000119 -0.000060 -0.118829 -12.998434 0.358666 139.999893
[Rope3_Seg07]
31 139.999771 0.000060 -0.000119 3.005807 -16.547314 -0.310536 139.999771
32 139.999771 0.000060 -0.000119 1.966421 -15.740634 -1.353767 139.999771
[Rope3_Seg08]
31 139.999985 -0.000060 0.000000 4.060775 -12.805944 0.646327 139.999985
32 139.999985 -0.000060 0.000000 3.458869 -13.470151 -0.257450 139.999985
[Rope3_Seg09]
31 90.185997 -0.000179 -0.000060 89.793228 -1.359877 -0.847183 90.185997
32 90.185997 -0.000179 -0.000060 89.793228 -1.359877 -0.847183 90.185997
[R_rear_hand01]
31 103.366196 -6.073594 -10.757982 -177.714203 24.565960 -73.910950 104.101845
32 103.366196 -6.073594 -10.757982 -177.714203 24.565960 -73.910950 104.101845
[R_rear_hand02]
31 100.509819 12.039542 -7.992327 -12.874829 36.868488 72.167213 101.543350
32 100.509819 12.039542 -7.992327 -12.874829 36.868488 72.167213 101.543350
[R_rear_hand03]
31 101.539970 5.215704 5.435467 71.484581 -71.816628 21.513813 101.819031
32 101.539970 5.215704 5.435467 71.484581 -71.816628 21.513813 101.819031
[Rope4_Seg01]
31 0.000010 0.000012 -0.000049 -99.182274 5.366768 -108.780083 0.000051
32 0.000010 0.000011 -0.000045 -99.112152 5.286532 -107.742874 0.000047
[Rope4_Seg02]
31 139.999985 0.000060 0.000119 1.149440 4.934597 -10.011293 139.999985
32 139.999985 0.000060 0.000119 0.938835 4.627006 -10.359528 139.999985
[Rope4_Seg03]
31 139.999924 0.000000 -0.000238 1.442074 7.783037 -17.168041 139.999924
32 139.999924 0.000000 -0.000238 0.938992 7.262789 -17.566572 139.999924
[Rope4_Seg04]
31 139.999985 0.000000 0.000119 0.922726 13.207063 -27.455675 139.999985
32 139.999985 0.000000 0.000119 -0.145310 11.798181 -27.436445 139.999985
[Rope4_Seg05]
31 139.999802 -0.000060 -0.000119 1.217473 4.337631 -17.752857 139.999802
32 139.999802 -0.000060 -0.000119 0.281483 5.327727 -18.187468 139.999802
[Rope4_Seg06]
31 139.999924 0.000000 0.000060 0.430478 -5.464569 -6.587967 139.999924
32 139.999924 0.000000 0.000060 0.203746 -2.998870 -6.765727 139.999924
[Rope4_Seg07]
31 139.999802 0.000000 0.000000 -0.119452 -4.280494 -6.302255 139.999802
32 139.999802 0.000000 0.000000 -0.102921 -3.484679 -5.514335 139.999802
[Rope4_Seg08]
31 139.999924 0.000000 0.000119 -2.198398 -1.877565 -5.034904 139.999924
32 139.999924 0.000000 0.000119 -2.171555 -1.147116 -4.964570 139.999924
[Rope4_Seg09]
31 90.185791 0.000060 0.000060 -135.617828 2.228885 0.850567 90.185791
32 90.185791 0.000060 0.000060 -135.617828 2.228885 0.850567 90.185791
[L_rear_hand01]
31 101.696655 -8.392275 -7.654577 -12.874829 -36.868488 107.832764 102.329041
32 101.696655 -8.392275 -7.654577 -12.874829 -36.868488 107.832764 102.329041
[L_rear_hand02]
31 102.726799 -1.568258 5.773216 71.484581 71.816628 158.486160 102.900848
32 102.726799 -1.568258 5.773216 71.484581 71.816628 158.486160 102.900848
[L_rear_hand03]
31 104.552910 9.721220 -10.420293 -177.714203 -24.565960 -106.089035 105.519653
32 104.552910 9.721220 -10.420293 -177.714203 -24.565960 -106.089035 105.519653
